<?xml version="1.0" encoding="UTF-8" standalone="no"?>
<!-- Created with Inkscape (http://www.inkscape.org/) -->

<svg
   xmlns:dc="http://purl.org/dc/elements/1.1/"
   xmlns:cc="http://creativecommons.org/ns#"
   xmlns:rdf="http://www.w3.org/1999/02/22-rdf-syntax-ns#"
   xmlns:svg="http://www.w3.org/2000/svg"
   xmlns="http://www.w3.org/2000/svg"
   xmlns:sodipodi="http://sodipodi.sourceforge.net/DTD/sodipodi-0.dtd"
   xmlns:inkscape="http://www.inkscape.org/namespaces/inkscape"
   width="134.99979mm"
   height="100.00023mm"
   viewBox="0 0 478.3457 354.33152"
   id="svg4166"
   version="1.1"
   inkscape:version="0.91 r13725"
   sodipodi:docname="case.svg">
  <defs
     id="defs4168" />
  <sodipodi:namedview
     id="base"
     pagecolor="#ffffff"
     bordercolor="#666666"
     borderopacity="1.0"
     inkscape:pageopacity="0.0"
     inkscape:pageshadow="2"
     inkscape:zoom="1"
     inkscape:cx="165.42914"
     inkscape:cy="238.57116"
     inkscape:document-units="px"
     inkscape:current-layer="layer1"
     showgrid="false"
     inkscape:window-width="1238"
     inkscape:window-height="755"
     inkscape:window-x="62"
     inkscape:window-y="0"
     inkscape:window-maximized="0"
     fit-margin-top="5"
     fit-margin-left="5"
     fit-margin-right="5"
     fit-margin-bottom="5" />
  <metadata
     id="metadata4171">
    <rdf:RDF>
      <cc:Work
         rdf:about="">
        <dc:format>image/svg+xml</dc:format>
        <dc:type
           rdf:resource="http://purl.org/dc/dcmitype/StillImage" />
        <dc:title></dc:title>
      </cc:Work>
    </rdf:RDF>
  </metadata>
  <g
     inkscape:label="Ebene 1"
     inkscape:groupmode="layer"
     id="layer1"
     transform="translate(17.716535,-715.74722)">
    <path
       style="opacity:1;fill:#000000;fill-opacity:1;stroke:none;stroke-width:6.4000001;stroke-linecap:round;stroke-linejoin:bevel;stroke-miterlimit:4;stroke-dasharray:none;stroke-dashoffset:0;stroke-opacity:1"
       d="m 248.95168,733.46376 c -10.32421,0 -18.63672,8.31251 -18.63672,18.63672 l 0,281.62502 c 0,10.3242 8.31251,18.6367 18.63672,18.6367 l 175.32617,0 c 10.32421,0 18.63477,-8.3125 18.63477,-18.6367 l 0,-281.62502 c 0,-10.32421 -8.31056,-18.63672 -18.63477,-18.63672 l -175.32617,0 z m -1.80664,12.07812 a 4.4291339,4.4291339 0 0 1 4.42969,4.42969 4.4291339,4.4291339 0 0 1 -4.42969,4.42969 4.4291339,4.4291339 0 0 1 -4.42774,-4.42969 4.4291339,4.4291339 0 0 1 4.42774,-4.42969 z m 178.9375,0 a 4.4291339,4.4291339 0 0 1 4.42969,4.42969 4.4291339,4.4291339 0 0 1 -4.42969,4.42969 4.4291339,4.4291339 0 0 1 -4.42969,-4.42969 4.4291339,4.4291339 0 0 1 4.42969,-4.42969 z m -178.9375,286.00002 a 4.4291339,4.4291339 0 0 1 4.42969,4.4297 4.4291339,4.4291339 0 0 1 -4.42969,4.4297 4.4291339,4.4291339 0 0 1 -4.42774,-4.4297 4.4291339,4.4291339 0 0 1 4.42774,-4.4297 z m 178.9375,0 a 4.4291339,4.4291339 0 0 1 4.42969,4.4297 4.4291339,4.4291339 0 0 1 -4.42969,4.4297 4.4291339,4.4291339 0 0 1 -4.42969,-4.4297 4.4291339,4.4291339 0 0 1 4.42969,-4.4297 z"
       id="path4212"
       inkscape:connector-curvature="0" />
    <path
       style="opacity:1;fill:#000000;fill-opacity:1;stroke:none;stroke-width:6.4000001;stroke-linecap:round;stroke-linejoin:bevel;stroke-miterlimit:4;stroke-dasharray:none;stroke-dashoffset:0;stroke-opacity:1"
       d="M 18.63672,733.46573 C 8.31251,733.46573 0,741.77628 0,752.10049 l 0,281.62691 c 0,10.3243 8.31251,18.6348 18.63672,18.6348 l 175.32617,0 c 10.32421,0 18.63477,-8.3105 18.63477,-18.6348 l 0,-281.62691 c 0,-10.32421 -8.31056,-18.63476 -18.63477,-18.63476 l -175.32617,0 z m -1.80664,11.63671 a 4.4291339,4.4291339 0 0 1 4.42969,4.42969 4.4291339,4.4291339 0 0 1 -4.42969,4.42969 4.4291339,4.4291339 0 0 1 -4.42774,-4.42969 4.4291339,4.4291339 0 0 1 4.42774,-4.42969 z m 178.9375,0 a 4.4291339,4.4291339 0 0 1 4.42969,4.42969 4.4291339,4.4291339 0 0 1 -4.42969,4.42969 4.4291339,4.4291339 0 0 1 -4.42969,-4.42969 4.4291339,4.4291339 0 0 1 4.42969,-4.42969 z m -163.87695,14.53516 146.33789,0 0,85.04102 -146.33789,0 0,-85.04102 z m 155.05468,6.76953 c 2.48528,0 4.5,2.01472 4.5,4.5 0,2.48528 -2.01472,4.5 -4.5,4.5 -2.48528,0 -4.5,-2.01472 -4.5,-4.5 0,-2.48528 2.01472,-4.5 4.5,-4.5 z m -162,0.4668 c 2.23661,-4.3e-4 4.05014,1.81223 4.05078,4.04883 4.4e-4,2.23736 -1.81341,4.05121 -4.05078,4.05078 -2.23736,4.3e-4 -4.05121,-1.81342 -4.05078,-4.05078 6.5e-4,-2.2366 1.81418,-4.04926 4.05078,-4.04883 z m 162,62.5332 c 2.48528,0 4.5,2.01472 4.5,4.5 0,2.48528 -2.01472,4.5 -4.5,4.5 -2.48528,0 -4.5,-2.01472 -4.5,-4.5 0,-2.48528 2.01472,-4.5 4.5,-4.5 z m -162,0.4668 c 2.23661,-4.3e-4 4.05014,1.81223 4.05078,4.04883 4.4e-4,2.23736 -1.81341,4.05121 -4.05078,4.05078 -2.23736,4.3e-4 -4.05121,-1.81342 -4.05078,-4.05078 6.5e-4,-2.2366 1.81418,-4.04926 4.05078,-4.04883 z m 102.21094,36.97851 c 11.86728,0.009 22.47275,7.40965 26.57617,18.54493 l 0,19.5625 c -4.0905,11.15066 -14.69891,18.56883 -26.57617,18.58398 -11.86507,-0.009 -22.46911,-7.40676 -26.57422,-18.53906 l 0,-19.56836 c 4.09025,-11.15 14.69767,-18.56799 26.57422,-18.58399 z m -72.86523,10 c 11.86728,0.009 22.47274,7.40965 26.57617,18.54493 l 0,19.5625 c -4.09051,11.15066 -14.69891,18.56883 -26.57617,18.58398 -11.86507,-0.009 -22.46911,-7.40676 -26.57422,-18.53906 l 0,-19.56836 c 4.09025,-11.15 14.69767,-18.56799 26.57422,-18.58399 z m -2,72.86719 c 11.86728,0.009 22.47274,7.40964 26.57617,18.54492 l 0,19.5625 c -4.0905,11.15067 -14.69891,18.56885 -26.57617,18.58395 -11.86507,-0.01 -22.46911,-7.40672 -26.57422,-18.53902 l 0,-19.56836 c 4.09025,-11.15 14.69767,-18.56802 26.57422,-18.58399 z m -35.46094,81.38277 a 4.4291339,4.4291339 0 0 1 4.42969,4.4297 4.4291339,4.4291339 0 0 1 -4.42969,4.4297 4.4291339,4.4291339 0 0 1 -4.42774,-4.4297 4.4291339,4.4291339 0 0 1 4.42774,-4.4297 z m 178.9375,0 a 4.4291339,4.4291339 0 0 1 4.42969,4.4297 4.4291339,4.4291339 0 0 1 -4.42969,4.4297 4.4291339,4.4291339 0 0 1 -4.42969,-4.4297 4.4291339,4.4291339 0 0 1 4.42969,-4.4297 z"
       id="path4180"
       inkscape:connector-curvature="0" />
  </g>
</svg>
